<svg id="Layer_1" data-name="Layer 1" xmlns="http://www.w3.org/2000/svg" viewBox="0 0 438.47 438.47"><defs><style>.cls-1{fill:#fafcf8;}.cls-2{fill:#3d5225;}</style></defs><circle class="cls-1" cx="219.23" cy="219.23" r="219.23"/><path class="cls-2" d="M223.87,25.69c-109,0-197.68,88.68-197.68,197.68s88.68,197.68,197.68,197.68,197.68-88.68,197.68-197.68S332.87,25.69,223.87,25.69Zm0,371.36c-71.35,0-132.77-43.25-159.47-104.9l20.89-20.9a122.68,122.68,0,0,1,75.43-35.63v89a53.14,53.14,0,0,0,104.76,12.61l.44-1.79a52.89,52.89,0,0,0,1.31-16.92,52.45,52.45,0,0,0,6.39.4A53.14,53.14,0,0,0,319,238.18l-1-1.58a52.75,52.75,0,0,0-11-12.88,53.14,53.14,0,0,0-20.17-93.44l-1.8-.44a52.77,52.77,0,0,0-16.9-1.31,53.14,53.14,0,0,0-80.34-51.81l-1.58,1a53.45,53.45,0,0,0-25.55,45.42v88.43a146.58,146.58,0,0,0-92.4,42.75L55.71,266.9a173.67,173.67,0,0,1-5.52-43.53c0-95.77,77.91-173.68,173.68-173.68S397.55,127.6,397.55,223.37,319.63,397.05,223.87,397.05Zm28-111.82-18.3-18.3a76.4,76.4,0,0,0,6-9.72l9.26,3.84L253.38,250l-9.24-3.83A74.12,74.12,0,0,0,246.82,235h25.84a29.32,29.32,0,0,1,24.91,14l1,1.58a29.16,29.16,0,0,1-19.72,43.81,29.18,29.18,0,0,1-25.8-8.07Zm-67.15,11.91a74.39,74.39,0,0,0,11.09-2.67l3.83,9.24,11.08-4.59-3.83-9.27a75.1,75.1,0,0,0,9.71-6l18.3,18.3a29.32,29.32,0,0,1,7.71,27.52l-.44,1.79a29.15,29.15,0,0,1-44.92,17,29.16,29.16,0,0,1-12.53-23.95ZM223.79,223a51.16,51.16,0,0,1-39.07,49.65v-99.3A51.17,51.17,0,0,1,223.79,223Zm74.43-24.53a29.15,29.15,0,0,1-24,12.53H246.82A74.41,74.41,0,0,0,244.14,200l9.24-3.83L248.79,185l-9.26,3.83a76.29,76.29,0,0,0-6-9.71l18.33-18.33a29.33,29.33,0,0,1,27.49-7.68l1.8.44a29.15,29.15,0,0,1,17,44.92ZM236,142.75l-1.11,1.11,0,0-18.3,18.3a76.29,76.29,0,0,0-9.71-6l3.83-9.26-11.08-4.59-3.83,9.24a74.41,74.41,0,0,0-11.09-2.68V123.1a29.31,29.31,0,0,1,14-24.91l1.58-1A29.14,29.14,0,0,1,244.11,117,29.15,29.15,0,0,1,236,142.75Z" transform="translate(-4.63 -4.13)"/></svg>