<?xml version="1.0" encoding="utf-8"?>
<!-- Generator: Adobe Illustrator 25.1.0, SVG Export Plug-In . SVG Version: 6.00 Build 0)  -->
<svg version="1.1" id="Layer_1" xmlns="http://www.w3.org/2000/svg" xmlns:xlink="http://www.w3.org/1999/xlink" x="0px" y="0px"
	 viewBox="0 0 85 112" style="enable-background:new 0 0 85 112;" xml:space="preserve">
<style type="text/css">
	.st0{clip-path:url(#SVGID_2_);}
	.st1{fill:#3A5109;}
</style>
<g>
	<defs>
		<rect id="SVGID_1_" width="85" height="112"/>
	</defs>
	<clipPath id="SVGID_2_">
		<use xlink:href="#SVGID_1_"  style="overflow:visible;"/>
	</clipPath>
	<g class="st0">
		<path class="st1" d="M81.6,60.8c-1.1-1.8-2.5-3.3-4-4.7c1.5-1.2,2.9-2.6,4-4.2c3.7-5.2,4.5-11.9,2.2-17.8
			c-2.3-6-7.4-10.4-13.6-11.9l-0.7-0.1c-2.1-0.5-4.2-0.7-6.2-0.5c0.2-1.9,0.2-3.8-0.2-5.8C61.9,9.6,57.7,4.3,51.8,1.7
			c-5.9-2.6-12.7-2.2-18.2,1.1l-0.6,0.4c-5.8,3.5-9.4,9.8-9.4,16.5V33v18.2c0,0.4-0.3,0.7-0.6,0.7C10,54.3,0,65.7,0,79.3v30.6
			c0,0.7,0.6,1.3,1.4,1.3h6.1c0.7,0,1.4-0.6,1.4-1.3V79.3c0-8.6,5.9-16,13.9-18.2c0.5-0.1,1,0.2,1,0.7v17.1v14
			c0,6.3,3.1,12.2,8.4,15.9c3.3,2.3,7.2,3.4,11.1,3.4c2.4,0,4.7-0.4,6.9-1.3c6-2.2,10.5-7.3,12.1-13.5l0.1-0.7
			c0.5-2,0.7-4.1,0.5-6.1c0.8,0.1,1.5,0.1,2.4,0.1c1.1,0,2.3-0.1,3.5-0.3c6.3-1.1,11.7-5.3,14.3-11.1s2.2-12.5-1.1-17.9L81.6,60.8z
			 M67.3,30.5l0.4,0.1c3.6,0.9,6.5,3.4,7.8,6.7c1.1,3.2,0.7,6.6-1.1,9.4c-2,3-5.5,4.8-9.2,4.8h-0.4H56c-0.4,0-0.7-0.3-0.7-0.6
			c-0.2-0.9-0.4-1.9-0.7-2.8c-0.1-0.4,0.1-0.8,0.4-0.9l1.7-0.7c0.6-0.3,0.9-0.9,0.7-1.6l-0.8-1.8c-0.3-0.6-1-0.9-1.6-0.7l-1.7,0.7
			c-0.4,0.1-0.8,0-1-0.3c-0.4-0.8-1-1.6-1.5-2.4c-0.2-0.3-0.2-0.7,0.1-1l6.3-6.2C59.8,30.7,63.7,29.7,67.3,30.5z M32.5,72.9V38.9
			c0-0.5,0.5-0.9,1-0.7c7.7,2.3,13.4,9.4,13.4,17.7s-5.7,15.5-13.4,17.7C33,73.8,32.5,73.4,32.5,72.9z M37.7,10.6l0.4-0.3
			c3-1.8,6.8-2.1,10-0.7c3.3,1.5,5.6,4.3,6.3,7.8c0.6,3.4-0.5,6.9-3,9.4L51,27.2l-6.3,6.2c-0.3,0.3-0.7,0.3-1,0.1
			c-0.8-0.5-1.6-1-2.4-1.5c-0.3-0.2-0.5-0.6-0.3-0.9l0.7-1.6c0.3-0.6,0-1.3-0.7-1.6l-1.8-0.8c-0.6-0.3-1.3,0-1.6,0.7l-0.7,1.6
			c-0.1,0.4-0.6,0.5-0.9,0.4c-0.9-0.3-1.8-0.5-2.8-0.7c-0.4-0.1-0.6-0.4-0.6-0.7v-8.8C32.5,15.9,34.5,12.5,37.7,10.6z M53.8,94.6
			l-0.1,0.7c-0.8,3.4-3.3,6.1-6.6,7.4c-3.3,1.2-6.8,0.8-9.7-1.1c-3.1-2-4.8-5.4-4.8-9.1v-9.1c0-0.4,0.3-0.7,0.6-0.7
			c1-0.2,1.9-0.4,2.8-0.7c0.4-0.1,0.8,0.1,0.9,0.4l0.7,1.6c0.3,0.6,1,0.9,1.6,0.7L41,84c0.6-0.3,0.9-0.9,0.7-1.6l-0.7-1.6
			c-0.1-0.4,0-0.8,0.3-0.9c0.8-0.4,1.7-0.9,2.4-1.5c0.3-0.2,0.7-0.2,1,0.1l6.3,6.2C53.6,87.2,54.7,91,53.8,94.6z M75,75.6
			c-1.5,3.3-4.3,5.5-7.9,6.2c-3.5,0.6-7-0.5-9.5-2.9l-0.4-0.4l-6.3-6.2c-0.3-0.3-0.3-0.7-0.1-1c0.6-0.8,1-1.6,1.5-2.4
			c0.2-0.3,0.6-0.5,1-0.3l1.7,0.7c0.6,0.3,1.3,0,1.6-0.7l0.8-1.8c0.3-0.6,0-1.3-0.7-1.6L55,64.6c-0.4-0.1-0.6-0.5-0.4-0.9
			c0.3-0.9,0.5-1.8,0.7-2.8c0.1-0.4,0.4-0.6,0.7-0.6h8.9c3.8,0,7.2,1.9,9.2,5.1l0.3,0.4C76.1,68.7,76.5,72.4,75,75.6z"/>
	</g>
</g>
</svg>
